<svg xmlns="http://www.w3.org/2000/svg" viewBox="0 0 46 26.12"><defs><style>.cls-1{fill:#2899ff;}.cls-2{fill:#0071ed;}.cls-3{fill:#7cd0ff;}</style></defs><g id="圖層_2" data-name="圖層 2"><g id="圖層_1-2" data-name="圖層 1"><path class="cls-1" d="M23,8.66a.78.78,0,0,0,.15-.1l4.49-5.08,3-3.41L30.71,0a1.29,1.29,0,0,1,.16.17l3.45,3.89,4,4.51.07.08a1.88,1.88,0,0,1-.14.24c-.2.24-.41.46-.62.69-.44.5-.88,1-1.33,1.51l-.85,1-1.33,1.51-.91,1L31.93,16l-.91,1a3,3,0,0,0-.2.29,1.63,1.63,0,0,0-.2.17c-1.46,1.64-2.91,3.29-4.36,4.93L23.17,26a1.56,1.56,0,0,0-.12.17l-.6-.67L16,18.17l-.61-.69a1.43,1.43,0,0,0-.15-.11c.21-.22.43-.44.63-.67.49-.54,1-1.1,1.46-1.64s1-1.09,1.48-1.63l.47-.52,1.15-1.29.46-.52L21.84,10c.33-.36.67-.72,1-1.09A1.48,1.48,0,0,0,23,8.66Z"/><path class="cls-2" d="M23,8.66a1.48,1.48,0,0,1-.16.27c-.32.37-.66.73-1,1.09L20.9,11.1l-.46.52-1.15,1.29-.47.52c-.49.54-1,1.08-1.48,1.63s-1,1.1-1.46,1.64c-.2.23-.42.45-.63.67A11.26,11.26,0,0,1,11.4,19.6a11.4,11.4,0,0,1-3.23.61A11.52,11.52,0,0,1,0,17.34L15.34,0l.2.22L23,8.6Z"/><path class="cls-3" d="M30.82,17.35a3,3,0,0,1,.2-.29l.91-1,1.27-1.46.91-1,1.33-1.51.85-1c.45-.5.89-1,1.33-1.51.21-.23.42-.45.62-.69a1.88,1.88,0,0,0,.14-.24L41,11.6l1.81,2.05,2.4,2.72.84.95c-.12.11-.22.22-.34.32a11.78,11.78,0,0,1-3.92,2.09,9.73,9.73,0,0,1-2.07.41c-.46,0-.92.09-1.38.09a12.43,12.43,0,0,1-3.15-.46,11.7,11.7,0,0,1-3.95-2A4.86,4.86,0,0,1,30.82,17.35Z"/><path class="cls-3" d="M101.21,17.21a1.8,1.8,0,0,1-.9-.23,1.82,1.82,0,0,1-1-1.46,4.84,4.84,0,0,1,0-.53V7.69A2,2,0,0,1,101,8.75a4.88,4.88,0,0,1,3.58-1,4.78,4.78,0,0,1,3.24,1.84l.49-.52a4.76,4.76,0,0,1,8,2.57,7.58,7.58,0,0,1,.09,1.06c0,1.41,0,2.82,0,4.23,0,.1,0,.19,0,.3a1.62,1.62,0,0,1-.7-.13,1.91,1.91,0,0,1-1.21-1.82c0-1,0-1.94,0-2.92a2.84,2.84,0,0,0-4.57-2.14,2.89,2.89,0,0,0-1.12,2.34v4.68a1.83,1.83,0,0,1-1.17-.41,1.89,1.89,0,0,1-.74-1.54c0-.89,0-1.78,0-2.68a2.91,2.91,0,0,0-.77-2.06,2.7,2.7,0,0,0-1.8-.9,2.86,2.86,0,0,0-2.06.61,2.73,2.73,0,0,0-1,1.7,3.39,3.39,0,0,0,0,.55c0,1.48,0,3,0,4.45Z"/><path class="cls-1" d="M61.45,17.19a1.88,1.88,0,0,1-1.85-1.41,2,2,0,0,1-.05-.48c0-1,0-1.9,0-2.85A2.84,2.84,0,0,0,53.89,12a4.55,4.55,0,0,0,0,.53v4.7c-.19,0-.36,0-.52-.09a1.9,1.9,0,0,1-1.39-1.81c0-2.47,0-4.93,0-7.39,0-.08,0-.15,0-.25a2,2,0,0,1,1.72,1.07,4.83,4.83,0,0,1,6.83.8l.13-.14A4.66,4.66,0,0,1,64.68,7.7,4.72,4.72,0,0,1,69,11.64a5.46,5.46,0,0,1,.07.9c0,1.45,0,2.91,0,4.37v.3c-.18,0-.32,0-.46-.06a1.9,1.9,0,0,1-1.46-1.86c0-.95,0-1.9,0-2.84A2.75,2.75,0,0,0,65.71,10a2.83,2.83,0,0,0-4.23,2.14,5.07,5.07,0,0,0,0,.55v4.52Z"/><path class="cls-3" d="M141.15,24v-1.9l.2,0a2.83,2.83,0,0,0,2.55-2.15,3,3,0,0,0,.09-.72c0-.89,0-1.77,0-2.65,0-.07,0-.14,0-.24l-.45.27a4.71,4.71,0,0,1-1.93.62,4.53,4.53,0,0,1-2.07-.26,4.67,4.67,0,0,1-2.79-2.66,5.06,5.06,0,0,1-.37-2V7.69a1.77,1.77,0,0,1,1.23.44,1.9,1.9,0,0,1,.7,1.53c0,.93,0,1.85,0,2.78a2.85,2.85,0,0,0,5.64.54,4.48,4.48,0,0,0,.06-.63c0-.92,0-1.83,0-2.75a1.92,1.92,0,0,1,1.62-1.9h.23a1.8,1.8,0,0,1,0,.22V19.57A4.15,4.15,0,0,1,145,22a4.72,4.72,0,0,1-2.77,1.82A3.67,3.67,0,0,1,141.15,24Z"/><path class="cls-1" d="M95.67,8.75a2,2,0,0,1,1.7-1.07c0,.2.07,8.93,0,9.49a12.28,12.28,0,0,1-1.89,0c-.05-.29,0-.59,0-.91a4.74,4.74,0,0,1-4.29.68,4.52,4.52,0,0,1-2.52-1.92,4.77,4.77,0,0,1,7-6.3ZM89.8,12.42A2.85,2.85,0,1,0,92.65,9.6,2.82,2.82,0,0,0,89.8,12.42Z"/><path class="cls-1" d="M78.78,16.06A4.75,4.75,0,1,1,78,8.25a4.68,4.68,0,0,1,2.36,5.31H74.24a3,3,0,0,1,.07-.46A1.73,1.73,0,0,1,76,11.83h2.51A2.81,2.81,0,0,0,76.2,9.64a2.85,2.85,0,1,0,1.27,5A12.67,12.67,0,0,1,78.78,16.06Z"/><path class="cls-3" d="M127.84,12.44a4.77,4.77,0,1,1-4.74-4.75A4.75,4.75,0,0,1,127.84,12.44Zm-1.94,0a2.8,2.8,0,0,0-2.83-2.87,2.84,2.84,0,0,0-2.84,2.85,2.88,2.88,0,0,0,2.82,2.84A2.84,2.84,0,0,0,125.9,12.47Z"/><path class="cls-1" d="M84.28,9.59v.48c0,.79,0,1.57,0,2.36a2.84,2.84,0,0,0,2.15,2.8l.12,0V17.2c-.13,0-.24,0-.36-.06a4.73,4.73,0,0,1-3.75-3.82,5.26,5.26,0,0,1-.07-.89c0-.85,0-1.7,0-2.55V9.6H80.48A1.76,1.76,0,0,1,81,8.25a2,2,0,0,1,1.34-.58V3.41c.17,0,.31,0,.45.06a1.88,1.88,0,0,1,1.46,1.78c0,.71,0,1.42,0,2.14v.29h2.27a2.61,2.61,0,0,1,0,.28,1.88,1.88,0,0,1-1.88,1.63Z"/><path class="cls-3" d="M129.75,17.22c0-.11,0-.19,0-.27,0-1.53,0-3.07,0-4.61a4.49,4.49,0,0,1,1.2-3.07,4.74,4.74,0,0,1,2.73-1.52c.26,0,.52,0,.83-.08,0,.65,0,1.27,0,1.91a1.29,1.29,0,0,1-.25,0,2.86,2.86,0,0,0-2.61,2.87c0,.93,0,1.86,0,2.79a1.91,1.91,0,0,1-1.38,1.85A3.86,3.86,0,0,1,129.75,17.22Z"/></g></g></svg>